<svg width="14" height="8" viewBox="0 0 14 8" fill="none" xmlns="http://www.w3.org/2000/svg">
<path d="M1.1413 0.593241C1.63767 0.0854869 2.32871 0.0456409 2.93551 0.593241L7.38462 4.85905L11.8337 0.59324C12.4405 0.0456404 13.1327 0.0854863 13.6257 0.59324C14.122 1.09986 14.0902 1.95598 13.6257 2.43186C13.1635 2.90773 8.28059 7.55721 8.28059 7.55721C8.16431 7.67772 8.02495 7.77356 7.87082 7.83903C7.71669 7.90449 7.55094 7.93823 7.38348 7.93823C7.21602 7.93823 7.05028 7.90449 6.89615 7.83903C6.74201 7.77357 6.60265 7.67772 6.48638 7.55721C6.48638 7.55721 1.60579 2.90773 1.1413 2.43186C0.675668 1.95598 0.644929 1.09986 1.1413 0.593241Z" fill="#D71921"/>
</svg>
