<svg width="23" height="23" viewBox="0 0 23 23" fill="none" xmlns="http://www.w3.org/2000/svg">
<path d="M14.2915 5.25672C14.7992 5.75309 14.8391 6.44413 14.2915 7.05093L10.0256 11.5L14.2915 15.9491C14.8391 16.5559 14.7992 17.2481 14.2915 17.7411C13.7848 18.2375 12.9287 18.2056 12.4528 17.7411C11.977 17.2789 7.3275 12.396 7.3275 12.396C7.20699 12.2797 7.11114 12.1404 7.04568 11.9862C6.98021 11.8321 6.94647 11.6664 6.94647 11.4989C6.94647 11.3314 6.98021 11.1657 7.04568 11.0116C7.11114 10.8574 7.20699 10.7181 7.3275 10.6018C7.3275 10.6018 11.977 5.72121 12.4528 5.25672C12.9287 4.79109 13.7848 4.76035 14.2915 5.25672Z" fill="#6C757D"/>
</svg>
