<svg width="19" height="19" viewBox="0 0 19 19" fill="none" xmlns="http://www.w3.org/2000/svg">
<g clip-path="url(#clip0_62_556)">
<path d="M13.4583 2.37495C13.6662 2.16703 13.913 2.00209 14.1847 1.88956C14.4564 1.77703 14.7475 1.71912 15.0416 1.71912C15.3356 1.71912 15.6268 1.77703 15.8985 1.88956C16.1701 2.00209 16.417 2.16703 16.6249 2.37495C16.8328 2.58288 16.9978 2.82973 17.1103 3.10139C17.2228 3.37306 17.2808 3.66424 17.2808 3.95829C17.2808 4.25234 17.2228 4.54351 17.1103 4.81518C16.9978 5.08685 16.8328 5.33369 16.6249 5.54162L5.93742 16.2291L1.58325 17.4166L2.77075 13.0625L13.4583 2.37495Z" stroke="#FD7E14" stroke-width="2" stroke-linecap="round" stroke-linejoin="round"/>
</g>
<defs>
<clipPath id="clip0_62_556">
<rect width="19" height="19" fill="white"/>
</clipPath>
</defs>
</svg>
