<svg width="7" height="11" viewBox="0 0 7 11" fill="none" xmlns="http://www.w3.org/2000/svg">
<path fill-rule="evenodd" clip-rule="evenodd" d="M0.608718 0.421232C0.758132 0.272004 0.96067 0.188183 1.17184 0.188183C1.38302 0.188183 1.58555 0.272004 1.73497 0.421232L6.25059 4.93686C6.39982 5.08627 6.48364 5.28881 6.48364 5.49998C6.48364 5.71115 6.39982 5.91369 6.25059 6.06311L1.73497 10.5787C1.58391 10.7195 1.38411 10.7961 1.17766 10.7925C0.971219 10.7888 0.774247 10.7052 0.628246 10.5592C0.482244 10.4132 0.398612 10.2162 0.39497 10.0098C0.391327 9.80334 0.467959 9.60354 0.608719 9.45248L4.56122 5.49998L0.608718 1.54748C0.459489 1.39807 0.375669 1.19553 0.375669 0.984356C0.375669 0.773184 0.459489 0.570647 0.608718 0.421232Z" fill="#D71921"/>
</svg>
